<?xml version="1.0" encoding="UTF-8"?>
<svg width="139px" height="18px" viewBox="0 0 116 15" version="1.1" xmlns="http://www.w3.org/2000/svg" xmlns:xlink="http://www.w3.org/1999/xlink">
    <!-- Generator: Sketch 52.4 (67378) - http://www.bohemiancoding.com/sketch -->
    <title>ShareGate-Logo</title>
    <desc>Created with Sketch.</desc>
    <g id="ShareGate-Logo" stroke="none" stroke-width="1" fill="none" fill-rule="evenodd">
        <g id="Sharegate_Logo_long_RGB" fill="#34343C" fill-rule="nonzero">
            <path d="M9.28198291,4.39961538 C8.74775499,3.13598901 7.75431909,2.50401099 6.30167521,2.50401099 C5.34393162,2.50401099 4.01125356,2.89879121 4.01125356,4.06186813 C4.01125356,5.55725275 6.2808547,6.01434066 7.40516239,6.22186813 C9.96625071,6.69972527 12.5481595,7.50972527 12.5481595,10.562967 C12.5481595,13.7200549 9.42491738,14.9663736 6.73890598,14.9663736 C5.3022906,14.9663736 3.96961254,14.6340659 2.74120228,13.9486813 C1.51279202,13.2839011 0.617344729,12.1415934 0.0551908832,10.5421978 C0.0551908832,10.5421978 2.38841026,9.82236264 2.78879202,9.69857143 C3.46562393,11.3932418 4.81747009,12.4114286 6.80136752,12.4114286 C7.88419943,12.4114286 9.69558405,12.0585165 9.69558405,10.6668132 C9.69558405,9.08818681 7.55090598,8.75604396 6.36413675,8.58972527 C2.92858689,8.07065934 1.20031909,6.55417582 1.20031909,4.0410989 C1.20031909,1.25769231 4.0737151,0.0117032967 6.46823932,0.0117032967 C8.94604558,0.0117032967 11.0905584,1.17478022 11.9235442,3.58401099 C11.9235442,3.58401099 9.66881481,4.27928571 9.28198291,4.39961538" id="Fill-1"></path>
            <path d="M14.400359,14.7586813 L14.400359,0.219230769 L17.0655499,0.219230769 L17.0655499,6.67895604 C17.6901652,5.37032967 18.897755,4.70571429 20.3345356,4.70571429 C22.6457778,4.70571429 23.9576353,6.18049451 23.9576353,8.44434066 L23.9576353,14.7586813 L21.313265,14.7586813 L21.313265,9.06741758 C21.313265,7.75895604 20.6676638,6.90725275 19.29351,6.90725275 C17.7526268,6.90725275 17.0655499,8.27818681 17.0655499,9.64912088 L17.0655499,14.7586813 L14.400359,14.7586813" id="Fill-2"></path>
            <path d="M33.8262279,9.87741758 C33.8262279,8.25741758 32.743396,6.99049451 31.0985755,6.99049451 C29.4327692,6.99049451 28.4333846,8.31972527 28.4333846,9.87741758 C28.4333846,11.4354396 29.5160513,12.7023626 31.0985755,12.7023626 C32.743396,12.7023626 33.8262279,11.4562088 33.8262279,9.87741758 Z M25.7681937,9.87741758 C25.7681937,7.03203297 27.6422051,4.70571429 30.5572422,4.70571429 C31.7648319,4.70571429 33.09751,5.16263736 33.7221254,6.26357143 L33.7221254,4.91340659 L36.3873162,4.91340659 L36.3873162,14.7586813 L33.8262279,14.7586813 L33.8262279,13.3046703 C33.09751,14.4054396 32.0354986,14.9663736 30.5988832,14.9663736 C27.6005641,14.9663736 25.7681937,12.7023626 25.7681937,9.87741758 Z" id="Fill-3"></path>
            <path d="M41.544359,4.91340659 L41.544359,6.18049451 C41.9815897,5.20417582 42.8562165,4.70571429 43.9180627,4.70571429 C45.6878063,4.70571429 46.7498177,5.88956044 46.7498177,7.61357143 C46.7498177,8.04989011 46.7080114,8.44434066 46.6039088,8.83912088 L44.0846268,8.83912088 C44.1470883,8.61065934 44.1679088,8.36126374 44.1679088,8.09126374 C44.1679088,7.3228022 43.6680513,6.86587912 42.9185128,6.86587912 C41.9607692,6.86587912 41.544359,7.53049451 41.544359,8.42357143 L41.544359,14.7586813 L38.8791681,14.7586813 L38.8791681,4.91340659 L41.544359,4.91340659" id="Fill-4"></path>
            <path d="M50.2888091,8.56895604 L54.5155385,8.56895604 L54.536359,8.48587912 C54.536359,7.98758242 54.3489744,7.5928022 53.9950256,7.28126374 C53.6202564,6.99049451 53.1412194,6.84494505 52.5374245,6.84494505 C51.4545926,6.84494505 50.5386553,7.48895604 50.2888091,8.56895604 Z M55.1817949,10.9991209 L57.451396,11.8921978 C56.7016923,13.9486813 55.015396,14.9663736 52.8497322,14.9663736 C49.7056695,14.9663736 47.6236182,12.826978 47.6236182,9.77373626 C47.6236182,6.88664835 49.643208,4.70571429 52.5374245,4.70571429 C55.2858974,4.70571429 57.1182678,6.40879121 57.1182678,9.12972527 C57.1182678,9.56604396 57.0766268,9.96065934 56.9933447,10.3345055 L50.2888091,10.3345055 C50.3304501,11.8091209 51.4545926,12.6815934 52.8913732,12.6815934 C54.098963,12.6815934 54.8694872,12.1208242 55.1817949,10.9991209 Z" id="Fill-5"></path>
            <path d="M84.0033333,9.87741758 C84.0033333,8.25741758 82.9208319,6.99049451 81.2758462,6.99049451 C79.6102051,6.99049451 78.6106553,8.31972527 78.6106553,9.87741758 C78.6106553,11.4354396 79.6933219,12.7023626 81.2758462,12.7023626 C82.9208319,12.7023626 84.0033333,11.4562088 84.0033333,9.87741758 Z M75.9454644,9.87741758 C75.9454644,7.03203297 77.8194758,4.70571429 80.7343476,4.70571429 C81.9421026,4.70571429 83.2746154,5.16263736 83.899396,6.26357143 L83.899396,4.91340659 L86.5644217,4.91340659 L86.5644217,14.7586813 L84.0033333,14.7586813 L84.0033333,13.3046703 C83.2746154,14.4054396 82.2127692,14.9663736 80.7759886,14.9663736 C77.7778348,14.9663736 75.9454644,12.7023626 75.9454644,9.87741758 Z" id="Fill-6"></path>
            <path d="M90.4781823,11.4354396 L90.4781823,7.09434066 L88.4376068,7.09434066 L88.4376068,4.91340659 L90.4781823,4.91340659 L90.4781823,1.67324176 L93.1225527,1.67324176 L93.1225527,4.91340659 L96.8287692,4.91340659 L96.8287692,7.09434066 L93.1225527,7.09434066 L93.1225527,11.4354396 C93.1225527,12.1415934 93.5179772,12.6192857 94.2468604,12.6192857 C94.9339373,12.6192857 95.3295271,12.1623626 95.4128091,11.2483516 L97.8697949,11.7052747 C97.5783077,13.7408242 96.2872707,14.9663736 94.1843989,14.9663736 C91.9356182,14.9663736 90.4781823,13.7408242 90.4781823,11.4354396" id="Fill-7"></path>
            <path d="M101.637812,8.56895604 L105.864541,8.56895604 L105.885362,8.48587912 C105.885362,7.98758242 105.697977,7.5928022 105.344194,7.28126374 C104.969259,6.99049451 104.490387,6.84494505 103.886593,6.84494505 C102.803926,6.84494505 101.887658,7.48895604 101.637812,8.56895604 Z M106.530798,10.9991209 L108.800564,11.8921978 C108.051026,13.9486813 106.364399,14.9663736 104.1989,14.9663736 C101.054838,14.9663736 98.9726211,12.826978 98.9726211,9.77373626 C98.9726211,6.88664835 100.992376,4.70571429 103.886593,4.70571429 C106.635066,4.70571429 108.467271,6.40879121 108.467271,9.12972527 C108.467271,9.56604396 108.42563,9.96065934 108.342348,10.3345055 L101.637812,10.3345055 C101.679453,11.8091209 102.803926,12.6815934 104.240541,12.6815934 C105.448296,12.6815934 106.218655,12.1208242 106.530798,10.9991209 Z" id="Fill-8"></path>
            <path d="M115.868302,4.65032967 C115.868302,5.9906044 114.779026,7.07736264 113.435276,7.07736264 C112.091527,7.07736264 111.002085,5.9906044 111.002085,4.65032967 C111.002085,3.30989011 112.091527,2.22313187 113.435276,2.22313187 C114.779026,2.22313187 115.868302,3.30989011 115.868302,4.65032967" id="Fill-9"></path>
            <path d="M115.077618,11.0909341 C115.077618,11.9958791 114.342456,12.7293956 113.435276,12.7293956 C112.527932,12.7293956 111.792604,11.9958791 111.792604,11.0909341 C111.792604,10.185989 112.527932,9.45247253 113.435276,9.45247253 C114.342456,9.45247253 115.077618,10.185989 115.077618,11.0909341" id="Fill-10"></path>
            <path d="M66.1854359,9.50373626 L70.4225755,9.50373626 C70.0686268,11.2692857 68.3611795,12.3700549 66.6122564,12.3700549 C63.8013219,12.3700549 61.9899373,10.292967 61.9899373,7.48895604 C61.9899373,4.78879121 63.8221425,2.60785714 66.6538974,2.60785714 C68.3786952,2.60785714 69.7136866,3.29554945 70.4425698,4.62626374 L73.2012877,3.77225275 C72.0136923,1.23478022 69.5771966,0.0117032967 66.6122564,0.0117032967 C62.4061823,0.0117032967 59.1163761,3.21016484 59.1163761,7.48895604 C59.1163761,11.6637363 62.0107578,14.9663736 66.3624103,14.9663736 C68.7152934,14.9663736 70.6101254,13.9486813 71.5470484,11.7468132 L71.5470484,14.7586813 L73.8665527,14.7586813 L73.8665527,7.07357143 L66.1854359,7.07357143 L66.1854359,9.50373626" id="Fill-11"></path>
        </g>
    </g>
</svg>